<svg xmlns="http://www.w3.org/2000/svg" viewBox="-18.00 72.25 799.60 181.00">

<g transform="translate(0.000,90.250) scale(1.4500)"><polyline points="42,27 28,27 28,41" fill="none" stroke="#2A3A6B" stroke-width="7.5" stroke-linecap="round" stroke-linejoin="round"/><polyline points="58,73 72,73 72,59" fill="none" stroke="#2A3A6B" stroke-width="7.5" stroke-linecap="round" stroke-linejoin="round"/><circle cx="50" cy="50" r="13" fill="#0C8C9F"/></g>
<g transform="translate(171.800,200.000) scale(0.10000,-0.10000)">
<path d="M72 0V745H202L449 409L692 745H822V0H685V506L455 200H439L208 515V0Z" transform="translate(0.000,0.000)" fill="#20242B"/>
<path d="M226 -12Q141 -12 90.0 30.0Q39 72 39 144Q39 212 85.0 257.0Q131 302 227 318L389 344V362Q389 397 361.5 420.5Q334 444 289 444Q246 444 214.0 421.5Q182 399 167 362L60 414Q84 478 148.0 517.0Q212 556 294 556Q361 556 411.5 531.0Q462 506 491.0 462.5Q520 419 520 362V0H396V57Q332 -12 226 -12ZM175 149Q175 121 196.0 104.5Q217 88 250 88Q312 88 350.5 126.5Q389 165 389 222V244L252 221Q175 207 175 149Z" transform="translate(873.000,0.000)" fill="#20242B"/>
<path d="M225 0 11 544H154L283 189L412 544H555L341 0Z" transform="translate(1423.000,0.000)" fill="#20242B"/>
<path d="M319 -12Q235 -12 172.0 26.0Q109 64 74.0 128.5Q39 193 39 273Q39 354 74.5 418.0Q110 482 171.0 519.0Q232 556 309 556Q393 556 452.0 519.5Q511 483 542.5 423.0Q574 363 574 290Q574 275 572.5 260.5Q571 246 567 235H175Q181 174 221.0 138.5Q261 103 320 103Q365 103 396.5 122.0Q428 141 446 173L552 121Q527 63 464.5 25.5Q402 -12 319 -12ZM309 448Q260 448 224.5 418.5Q189 389 178 335H434Q430 385 395.5 416.5Q361 448 309 448Z" transform="translate(1959.000,0.000)" fill="#20242B"/>
<path d="M61 0V544H184V477Q206 516 246.0 536.0Q286 556 338 556Q398 556 444.0 529.5Q490 503 516.5 457.0Q543 411 543 350V0H412V319Q412 373 381.5 404.5Q351 436 302 436Q253 436 222.5 404.0Q192 372 192 319V0Z" transform="translate(2551.000,0.000)" fill="#20242B"/>
<path d="M338 -12Q267 -12 206.5 14.0Q146 40 102.5 86.5Q59 133 39 195L152 244Q179 179 230.0 143.0Q281 107 345 107Q398 107 430.5 131.5Q463 156 463 198Q463 231 443.5 252.0Q424 273 385 286L242 332Q155 360 111.0 413.5Q67 467 67 540Q67 604 98.5 653.0Q130 702 186.0 729.5Q242 757 316 757Q416 757 491.0 706.0Q566 655 596 571L484 521Q462 576 418.0 607.0Q374 638 316 638Q264 638 232.5 612.5Q201 587 201 546Q201 481 282 455L419 412Q597 355 597 206Q597 142 564.0 93.0Q531 44 472.5 16.0Q414 -12 338 -12Z" transform="translate(3124.000,0.000)" fill="#0C8C9F"/>
<path d="M323 -12Q241 -12 177.0 25.5Q113 63 76.0 127.5Q39 192 39 273Q39 354 76.0 417.5Q113 481 177.0 518.5Q241 556 323 556Q381 556 431.0 535.5Q481 515 517.0 479.0Q553 443 570 395L455 345Q440 386 404.5 411.0Q369 436 323 436Q280 436 246.5 414.5Q213 393 194.0 356.5Q175 320 175 272Q175 224 194.0 187.0Q213 150 246.5 129.0Q280 108 323 108Q370 108 404.5 132.5Q439 157 455 200L570 148Q554 101 518.0 65.0Q482 29 432.0 8.5Q382 -12 323 -12Z" transform="translate(3751.000,0.000)" fill="#0C8C9F"/>
<path d="M327 -12Q247 -12 181.5 25.0Q116 62 77.5 126.0Q39 190 39 272Q39 354 77.5 418.0Q116 482 181.0 519.0Q246 556 327 556Q406 556 471.0 519.0Q536 482 575.0 418.0Q614 354 614 272Q614 190 575.0 125.5Q536 61 471.0 24.5Q406 -12 327 -12ZM327 108Q370 108 404.0 129.0Q438 150 457.5 187.0Q477 224 477 272Q477 319 457.5 356.0Q438 393 404.0 414.5Q370 436 327 436Q282 436 248.0 414.5Q214 393 194.5 356.0Q175 319 175 272Q175 224 194.5 187.0Q214 150 248.0 129.0Q282 108 327 108Z" transform="translate(4339.000,0.000)" fill="#0C8C9F"/>
<path d="M255 -12Q159 -12 104.5 49.5Q50 111 50 211V544H181V222Q181 170 211.5 139.0Q242 108 291 108Q339 108 370.0 139.5Q401 171 401 225V544H532V0H408V66Q386 27 346.0 7.5Q306 -12 255 -12Z" transform="translate(4971.000,0.000)" fill="#0C8C9F"/>
<path d="M309 -6Q217 -6 166.5 44.5Q116 95 116 187V427H22V544H32Q72 544 94.0 565.0Q116 586 116 626V668H247V544H372V427H247V194Q247 153 269.0 131.0Q291 109 339 109Q354 109 374 112V0Q360 -2 342.0 -4.0Q324 -6 309 -6Z" transform="translate(5544.000,0.000)" fill="#0C8C9F"/>
</g>
</svg>
